<svg width="606" height="606" viewBox="0 0 606 606" fill="none" xmlns="http://www.w3.org/2000/svg">
<path d="M44.7114 460.696L138.657 393.32L252.205 469.423L416.015 269.872L510.242 377.568L605.711 289.032C605.903 293.465 606 297.923 606 302.403C606 470.075 470.419 606 303.171 606C193.777 606 97.9309 547.848 44.7114 460.696H44.7114Z" fill="#00AEA9"/>
<path d="M12.7996 390.264C4.47417 362.591 0 333.25 0 302.864C0 135.597 135.574 0 302.813 0C434.701 0 546.896 84.3304 588.435 202.02L515.528 269.472L413.812 153.493L236.947 368.438L136.849 301.509L12.7996 390.264Z" fill="#233C6A"/>
</svg>
