<svg xmlns="http://www.w3.org/2000/svg" version="1.1" xmlns:xlink="http://www.w3.org/1999/xlink" xmlns:svgjs="http://svgjs.dev/svgjs" width="1000" height="1125" viewBox="0 0 1000 1125"><g transform="matrix(1,0,0,1,0,0)"><svg viewBox="0 0 320 360" data-background-color="#ffffff" preserveAspectRatio="xMidYMid meet" height="1125" width="1000" xmlns="http://www.w3.org/2000/svg" xmlns:xlink="http://www.w3.org/1999/xlink"><g id="tight-bounds" transform="matrix(1,0,0,1,0,0)"><svg viewBox="0 0 320 360" height="360" width="320"><g><svg></svg></g><g><svg viewBox="0 0 320 360" height="360" width="320"><g><path xmlns="http://www.w3.org/2000/svg" d="M297.491 100.645c-12.426-21.51-112.674-79.355-137.491-79.355-24.817 0-125.028 57.845-137.491 79.355-11.591 20.02-11.591 138.726 0 158.746 12.463 21.474 112.674 79.319 137.491 79.319 24.817 0 125.064-57.845 137.491-79.355 11.591-20.02 11.591-138.69 0-158.71zM309.481 93.705c-14.461-24.998-119.469-86.295-149.481-86.295-30.012 0-135.02 61.297-149.481 86.295-14.025 24.199-14.025 148.391 0 172.59 14.461 24.998 119.469 86.295 149.481 86.295 30.012 0 135.02-61.297 149.481-86.259 14.025-24.235 14.025-148.427 0-172.626zM300.906 261.353c-12.753 22.055-115.472 81.317-140.906 81.318-25.434 0-128.153-59.298-140.906-81.354-11.881-20.529-11.881-142.178 0-162.707 12.753-22.019 115.472-81.281 140.906-81.281 25.434 0 128.153 59.298 140.906 81.318 11.881 20.529 11.881 142.178 0 162.706z" fill="#755bb4" fill-rule="nonzero" stroke="none" stroke-width="1" stroke-linecap="butt" stroke-linejoin="miter" stroke-miterlimit="10" stroke-dasharray="" stroke-dashoffset="0" font-family="none" font-weight="none" font-size="none" text-anchor="none" style="mix-blend-mode: normal" data-fill-palette-color="tertiary"></path></g><g transform="matrix(1,0,0,1,48.000000000000014,120.61158100195186)"><svg viewBox="0 0 223.99999999999997 118.77683799609629" height="118.77683799609629" width="223.99999999999997"><g><svg viewBox="0 0 223.99999999999997 118.77683799609629" height="118.77683799609629" width="223.99999999999997"><g><svg viewBox="0 0 223.99999999999997 118.77683799609629" height="118.77683799609629" width="223.99999999999997"><g><svg viewBox="0 0 223.99999999999997 118.77683799609629" height="118.77683799609629" width="223.99999999999997"><g id="textblocktransform"><svg viewBox="0 0 223.99999999999997 118.77683799609629" height="118.77683799609629" width="223.99999999999997" id="textblock"><g><svg viewBox="0 0 223.99999999999997 118.77683799609629" height="118.77683799609629" width="223.99999999999997"><g transform="matrix(1,0,0,1,0,0)"><svg width="223.99999999999997" viewBox="0.9000000357627869 -35.70000076293945 76.8499984741211 40.75" height="118.77683799609629" data-palette-color="#ffffff"><path d="M1.4-3.35L1.4-3.35Q1.4-8.75 4.6-14.05L4.6-14.05Q0.9-16.4 0.9-21L0.9-21Q0.9-26.55 5.8-30.85L5.8-30.85Q11.3-35.7 20-35.7L20-35.7Q24-35.7 28.6-34.55L28.6-34.55Q29.65-34.3 37.55-30.68 45.45-27.05 48.9-27.05L48.9-27.05Q51.2-27.05 52.35-28.35L52.35-28.35Q52.95-29 52.95-29.75 52.95-30.5 52.3-31.1L52.3-31.1Q51.95-31.6 51.95-31.75 51.95-31.9 52.23-31.9 52.5-31.9 53.18-31.03 53.85-30.15 53.85-28.98 53.85-27.8 52.28-26.73 50.7-25.65 48.3-25.65L48.3-25.65Q44.55-25.65 36.65-29.28 28.75-32.9 26.73-33.3 24.7-33.7 22.1-33.7L22.1-33.7Q11.75-33.7 5.8-27L5.8-27Q5.1-26.25 4.15-23.98 3.2-21.7 3.2-19.6L3.2-19.6Q3.2-16.7 5.25-15.1L5.25-15.1Q7.85-18.9 11.4-21.15 14.95-23.4 18.6-23.4L18.6-23.4Q23.1-23.4 23.1-19.9L23.1-19.9Q23.1-15.7 18.18-10.78 13.25-5.85 9.05-5.85L9.05-5.85Q6.35-5.85 6.35-8.15L6.35-8.15Q6.35-8.95 6.78-9.55 7.2-10.15 7.8-10L7.8-10 7.7-8.85Q7.7-8.1 10-8.1L10-8.1Q13.4-8.1 17.18-11.6 20.95-15.1 21.75-18.45L21.75-18.45Q21.95-19.2 21.95-19.8L21.95-19.8Q21.95-22.05 19.07-22.05 16.2-22.05 13.13-19.85 10.05-17.65 7.35-14.05L7.35-14.05Q7.55-13.95 8.9-13.65L8.9-13.65 11.9-13.55Q14.1-13.45 14.1-13.05L14.1-13.05Q14.1-12.35 12-12.35L12-12.35Q11.85-12.35 11.7-12.35L11.7-12.35Q8.65-12.35 6.7-13.1L6.7-13.1Q2.85-7.2 2.85-2.25L2.85-2.25Q2.85 4.15 7.8 4.15L7.8 4.15Q13.4 4.15 19.45-3.65L19.45-3.65 29.25-18.25Q34.75-26.25 38.8-26.45L38.8-26.45 40.7-26Q41.6-25.5 41.6-24.5 41.6-23.5 41.1-23.5L41.1-23.5 39.5-23.75Q36.05-23.75 30.65-16.3L30.65-16.3 20.7-2.4Q14.3 5.05 8.45 5.05L8.45 5.05Q4.45 5.05 2.93 2.9 1.4 0.75 1.4-3.35ZM71.55-9.45L71.55-9.45Q71.55-7.65 70.75-6.05L70.75-6.05Q69.05-2.45 64.25-0.05 59.45 2.35 54.25 2.35L54.25 2.35Q46.35 2.35 43.5-3.05L43.5-3.05Q38.35 1.25 36.15 1.25L36.15 1.25Q35.75 1.25 35.45 1.1L35.45 1.1Q33.95 0.3 33.95-2.35 33.95-5 36.15-8.85 38.35-12.7 40-13.4L40-13.4Q40.75-13.65 41.15-13.65L41.15-13.65Q42.6-13.65 43.35-11.25L43.35-11.25 44.85-6.45Q46.3-8 48.8-11.4L48.8-11.4 53.25-17.4Q61.45-28.05 64-29.05L64-29.05Q64.9-29.4 65.85-29.4 66.8-29.4 67.42-29 68.05-28.6 68.05-28L68.05-28Q68.05-27.1 66.6-26.95L66.6-26.95Q65.1-26.1 60.87-21.98 56.65-17.85 55.85-16.75L55.85-16.75Q50.25-8.95 45.5-4.75L45.5-4.75Q48.55 1.3 54.65 1.3L54.65 1.3Q58.35 1.3 62-1.03 65.65-3.35 67.45-6.75L67.45-6.75Q68.25-8.2 68.25-10 68.25-11.8 66.82-13.43 65.4-15.05 63.25-15.8L63.25-15.8Q62.25-15.95 60.05-16.23 57.85-16.5 57.85-17.15L57.85-17.15Q57.85-17.4 58.05-17.6L58.05-17.6Q58.65-18.3 59.6-18.3L59.6-18.3Q60.15-18.3 60.67-18.1 61.2-17.9 61.5-17.8 61.8-17.7 62.2-17.55L62.2-17.55Q63.3-17.45 64.1-17.45L64.1-17.45Q67.4-17.45 70.1-18.5L70.1-18.5Q73.55-19.85 74.5-22.55L74.5-22.55Q75.1-24.3 75.1-25.7L75.1-25.7Q75.1-29.15 71.75-30.85L71.75-30.85Q68.85-32.35 63.8-32.35L63.8-32.35Q55.85-32.35 49.55-29.35L49.55-29.35Q46.35-27.85 43.47-24.9 40.6-21.95 40.6-19.85L40.6-19.85Q40.6-18.4 41.35-17.45L41.35-17.45Q41.65-17.05 42.4-16.45L42.4-16.45Q42.65-16.3 42.1-16.3L42.1-16.3Q39-17 39-20.45 39-23.9 42.5-26.95L42.5-26.95Q45.1-29.2 48.35-30.6L48.35-30.6Q55.1-33.5 63.7-33.5L63.7-33.5Q69.85-33.5 73.5-31.7L73.5-31.7Q77.75-29.7 77.75-25.65L77.75-25.65Q77.75-24.05 77.1-22.4L77.1-22.4Q76.05-19.4 71.65-17.85L71.65-17.85Q68.35-16.7 64.55-16.65L64.55-16.65Q67.5-16.5 69.52-14.48 71.55-12.45 71.55-9.45ZM39.6-11.3L39.6-11.3Q39.55-11.3 39.35-11.2L39.35-11.2Q35.65-5.85 35.65-2.6L35.65-2.6Q35.65-1.25 36.3-0.15L36.3-0.15Q36.45 0.1 36.8 0.1L36.8 0.1Q38.4 0.1 42.95-4.45L42.95-4.45 42.8-4.65Q40.8-11.3 39.6-11.3Z" opacity="1" transform="matrix(1,0,0,1,0,0)" fill="#ffffff" class="wordmark-text-0" data-fill-palette-color="quaternary" id="text-0"></path></svg></g></svg></g></svg></g></svg></g><g></g></svg></g></svg></g></svg></g></svg></g><defs></defs></svg><rect width="320" height="360" fill="none" stroke="none" visibility="hidden"></rect></g></svg></g></svg>